<svg width="30" height="30" viewBox="0 0 30 30" fill="none" xmlns="http://www.w3.org/2000/svg">
<path d="M6.49999 13C6.19999 13 5.99999 12.8 5.99999 12.5C5.99999 10.1 5.69999 8.79999 4.9 8.09999C4.1 7.39999 2.9 6.99999 0.499999 6.99999C0.2 6.99999 0 6.79999 0 6.49999C0 6.19999 0.2 5.99999 0.499999 5.99999C2.9 5.99999 4.2 5.69999 4.9 4.9C5.59999 4.1 5.99999 2.9 5.99999 0.499999C5.99999 0.2 6.19999 0 6.49999 0C6.79999 0 6.99999 0.2 6.99999 0.499999C6.99999 2.9 7.29999 4.2 8.09999 4.9C8.89999 5.59999 10.1 5.99999 12.5 5.99999C12.8 5.99999 13 6.19999 13 6.49999C13 6.79999 12.8 6.99999 12.5 6.99999C10.1 6.99999 8.79999 7.29999 8.09999 8.09999C7.39999 8.89999 6.99999 10.1 6.99999 12.5C6.99999 12.8 6.79999 13 6.49999 13ZM4.3 6.49999C4.8 6.69999 5.29999 6.99999 5.59999 7.29999C5.89999 7.59999 6.19999 8.09999 6.39999 8.59999C6.59999 8.09999 6.89999 7.59999 7.19999 7.29999C7.49999 6.99999 7.99999 6.69999 8.49999 6.49999C8.19999 6.29999 7.69999 5.99999 7.29999 5.69999C6.89999 5.39999 6.69999 4.8 6.49999 4.3C6.29999 4.8 5.99999 5.29999 5.69999 5.69999C5.39999 6.09999 4.8 6.29999 4.3 6.49999ZM14.5 5.99999C14.2 5.99999 14 5.79999 14 5.49999C14 4.6 13.9 4.1 13.6 3.9C13.3 3.6 12.9 3.5 12 3.5C11.7 3.5 11.5 3.3 11.5 3C11.5 2.7 11.7 2.5 12 2.5C12.9 2.5 13.4 2.4 13.6 2.1C13.9 1.9 14 1.4 14 0.499999C14 0.2 14.2 0 14.5 0C14.8 0 15 0.2 15 0.499999C15 1.4 15.1 1.9 15.4 2.1C15.7 2.4 16.1 2.5 17 2.5C17.3 2.5 17.5 2.7 17.5 3C17.5 3.3 17.3 3.5 17 3.5C16.1 3.5 15.6 3.6 15.4 3.9C15.1 4.1 15 4.6 15 5.49999C15 5.79999 14.8 5.99999 14.5 5.99999ZM14.2 3C14.3 3 14.3 3.1 14.4 3.1C14.5 3.1 14.5 3.2 14.5 3.3C14.5 3.2 14.6 3.2 14.6 3.1C14.7 3.1 14.8 3 14.8 3C14.7 3 14.7 2.9 14.6 2.9C14.5 2.9 14.5 2.8 14.5 2.7C14.5 2.8 14.4 2.8 14.4 2.9C14.3 2.9 14.2 3 14.2 3ZM11.5 20C11.2 20 11 19.8 11 19.5C11 17.9 10.8 17.1 10.3 16.7C9.89999 16.2 9.09999 16 7.49999 16C7.19999 16 6.99999 15.8 6.99999 15.5C6.99999 15.2 7.19999 15 7.49999 15C9.09999 15 9.89999 14.8 10.3 14.3C10.8 13.8 11 13 11 11.5C11 11.2 11.2 11 11.5 11C11.8 11 12 11.2 12 11.5C12 13.1 12.2 13.9 12.7 14.3C13.2 14.8 14 15 15.5 15C15.8 15 16 15.2 16 15.5C16 15.8 15.8 16 15.5 16C13.9 16 13.1 16.2 12.7 16.7C12.2 17.2 12 18 12 19.5C12 19.8 11.8 20 11.5 20ZM10.4 15.5C10.6 15.6 10.8 15.8 11 15.9C11.2 16 11.3 16.3 11.4 16.5C11.5 16.3 11.7 16.1 11.8 15.9C11.9 15.7 12.2 15.6 12.4 15.5C12.2 15.4 12 15.2 11.8 15.1C11.6 15 11.5 14.7 11.4 14.5C11.3 14.7 11.1 14.9 11 15.1C10.9 15.3 10.7 15.4 10.4 15.5ZM16 30C10.4 30 5.39999 26.7 3.2 21.6C3.1 21.4 3.2 21.2 3.3 21C3.4 20.9 3.7 20.8 3.9 20.9C5.49999 21.6 7.19999 22 8.99999 22C16.2 22 22 16.2 22 8.99999C22 7.19999 21.6 5.49999 20.9 3.8C20.8 3.6 20.9 3.4 21 3.2C21.1 3.1 21.4 3 21.6 3.1C26.7 5.39999 30 10.4 30 16C30 23.7 23.7 30 16 30ZM4.6 22.3C6.89999 26.4 11.2 29 16 29C23.2 29 29 23.2 29 16C29 11.2 26.4 6.89999 22.3 4.6C22.8 5.99999 23 7.49999 23 8.99999C23 16.7 16.7 23 8.99999 23C7.49999 23 5.99999 22.8 4.6 22.3Z" fill="black"/>
</svg>
