<svg width="43" height="40" viewBox="0 0 43 40" fill="none" xmlns="http://www.w3.org/2000/svg">
<path d="M22.145 36.3405C21.8583 36.3405 21.5716 36.1956 21.4283 35.9058L17.9883 25.3261L7.52499 21.8478C7.38166 21.7029 7.09499 21.413 7.09499 21.1232C7.09499 20.8333 7.23833 20.5435 7.38166 20.3985L41.7816 0.108696C42.0683 -0.0362318 42.355 -0.0362318 42.4983 0.108696C42.785 0.39855 42.9283 0.688405 42.9283 0.97826L37.195 31.413C37.195 31.5579 37.0516 31.8478 36.9083 31.8478C36.765 31.9927 36.4783 31.9927 36.335 31.8478L24.1516 27.2101L22.8616 35.7608C22.8616 36.0507 22.575 36.3405 22.145 36.3405ZM9.53166 20.9782L18.8483 24.1666C18.9916 24.1666 19.2783 24.4565 19.2783 24.6014L21.8583 32.5724L22.8616 26.0507C22.8616 25.7608 23.005 25.6159 23.1483 25.471C23.2916 25.3261 23.5783 25.3261 23.7216 25.471L35.7616 30.2536L41.065 2.28261L9.53166 20.9782ZM23.5783 26.9203C23.435 26.9203 23.2916 26.9203 23.1483 26.7753C22.8616 26.4855 22.7183 26.0507 23.005 25.7608L35.7616 8.36956L19.135 25.1811C18.8483 25.471 18.4183 25.471 18.1316 25.1811C17.845 24.8913 17.845 24.4565 18.1316 24.1666L41.6383 0.253623C41.925 -0.0362318 42.355 -0.0362318 42.6416 0.253623C42.9283 0.543478 42.9283 0.97826 42.785 1.26811L24.1516 26.6304C24.0083 26.7753 23.865 26.9203 23.5783 26.9203ZM22.145 36.3405C22.0016 36.3405 21.8583 36.3405 21.715 36.1956C21.4283 35.9058 21.285 35.471 21.5716 35.1811L27.305 27.9348C27.5916 27.6449 28.0216 27.6449 28.3083 27.7898C28.595 28.0797 28.7383 28.5145 28.4516 28.8043L22.7183 36.0507C22.575 36.1956 22.2883 36.3405 22.145 36.3405ZM1.935 34.0217C1.79166 34.0217 1.64833 34.0217 1.505 33.8768L0.215 32.5724C-0.0716666 32.2826 -0.0716666 31.8478 0.215 31.5579C0.501666 31.2681 0.931666 31.2681 1.21833 31.5579L2.50833 32.8623C2.795 33.1521 2.795 33.5869 2.50833 33.8768C2.365 33.8768 2.07833 34.0217 1.935 34.0217ZM12.5417 39.8188C11.6817 39.6739 10.8217 39.5289 10.105 39.2391C9.67499 39.0942 9.53166 38.6594 9.67499 38.3695C9.81832 38.0797 10.2483 37.7898 10.535 37.9347C11.2517 38.2246 11.9683 38.3695 12.685 38.3695C13.115 38.3695 13.4017 38.8043 13.2583 39.2391C13.2583 39.5289 12.9717 39.8188 12.5417 39.8188ZM15.9816 39.8188C15.695 39.8188 15.265 39.5289 15.265 39.2391C15.265 38.8043 15.4083 38.5145 15.8383 38.3695C16.125 38.3695 16.2683 38.2246 16.555 38.2246C16.985 38.0797 17.2716 38.3695 17.415 38.8043C17.5583 39.2391 17.2716 39.5289 16.8417 39.6739C16.6983 39.6739 16.4116 39.6739 15.9816 39.8188C16.125 39.8188 16.125 39.8188 15.9816 39.8188ZM7.23833 37.9347C7.09499 37.9347 6.95166 37.9347 6.95166 37.7898C6.23499 37.355 5.66166 36.9202 4.94499 36.4855C4.65833 36.1956 4.515 35.7608 4.80166 35.471C5.08833 35.1811 5.51833 35.0362 5.80499 35.326C6.37833 35.7608 7.09499 36.1956 7.66833 36.4855C7.95499 36.6304 8.09832 37.0652 7.95499 37.5C7.66832 37.7898 7.52499 37.9347 7.23833 37.9347ZM18.705 38.9492C18.4183 38.9492 18.1316 38.8043 17.9883 38.5145C17.845 38.0797 17.9883 37.7898 18.4183 37.5C18.9916 37.2101 19.4216 37.0652 19.995 36.7753C20.2816 36.6304 20.7116 36.6304 20.9983 37.0652C21.1416 37.355 21.1416 37.7898 20.7116 38.0797L18.9916 38.9492H18.705Z" fill="#F7F7F7"/>
</svg>
