<svg width="37" height="36" viewBox="0 0 37 36" fill="none" xmlns="http://www.w3.org/2000/svg">
<path d="M3.18297 0.0998516C3.01433 0.127958 2.64893 0.366875 2.38191 0.619843L1.89002 1.08362V5.97436V10.851L1.2576 9.99376C0.597066 9.09431 0.498689 9.0381 0.231666 9.30512C-0.049411 9.5862 0.0208582 9.75484 0.962466 11.1321C2.32569 13.1137 2.3538 13.1278 3.21108 11.8067C3.50621 11.3429 3.80134 10.9635 3.85756 10.9635C3.91377 10.9635 4.01215 10.8089 4.05431 10.6121C4.11053 10.4154 4.22296 10.2608 4.32134 10.2608C4.53214 10.2608 4.58836 9.54403 4.39161 9.30512C4.15269 9.02404 4.02621 9.10836 3.36567 9.99376L2.73325 10.851V6.19922C2.73325 1.7301 2.74731 1.53334 3.01433 1.26632C3.28135 0.999296 3.47811 0.985243 9.94288 0.985243C15.719 0.985243 16.6185 1.01335 16.8995 1.2101L17.2087 1.42091V7.53433V13.6337L16.8995 13.7602C16.1687 14.0413 15.719 15.0391 15.9439 15.8683C16.2531 17.0207 17.4898 17.5828 18.6 17.0769C19.893 16.5007 19.9071 14.5472 18.6141 13.8023L18.2065 13.5634L18.1644 7.35163L18.1222 1.15389L17.7709 0.774435C17.0682 0.00147438 17.0541 0.00147438 10.0131 0.0155277C6.42941 0.0295811 3.36567 0.071743 3.18297 0.0998516Z" fill="#6FCF97"/>
<path d="M25.0367 0.212265C24.7415 0.310638 24.4745 0.423073 24.4605 0.45118C24.4464 0.465233 24.2918 0.676041 24.1232 0.900902C23.814 1.29441 23.814 1.36468 23.814 6.70514V12.1018L22.9005 13.4229C22.3945 14.1537 21.987 14.8564 21.987 14.9688C21.987 15.0812 22.0994 15.2218 22.2399 15.292C22.507 15.4326 22.9989 15.3202 22.9848 15.1093C22.9848 15.025 23.0832 14.8423 23.2237 14.6877C23.3502 14.5331 23.5329 14.2521 23.6313 14.0553C23.7578 13.7742 23.7999 14.1958 23.7999 16.2758C23.814 19.7331 23.9545 19.5363 21.4108 19.5363C19.8367 19.5363 19.4573 19.4941 19.4573 19.3396C19.4573 19.0725 18.5438 18.2996 18.1081 18.1871C17.8973 18.1309 17.4476 18.1871 17.0822 18.2996C16.5762 18.4542 16.3795 18.6088 16.1546 19.0163L15.8736 19.5363H11.8682C8.01745 19.5363 7.84881 19.5223 7.60989 19.2552C7.38503 18.9882 7.37098 18.412 7.37098 12.2986C7.37098 6.18515 7.38503 5.60894 7.60989 5.34192C7.83475 5.08895 8.03151 5.06084 9.63365 5.06084C11.4888 5.06084 11.8401 4.94841 11.6433 4.44247C11.5731 4.24572 11.2779 4.21761 9.53527 4.21761H7.51152L6.97747 4.69544L6.45748 5.17327L6.41532 12.1159C6.38721 18.6228 6.40126 19.0725 6.64018 19.5223C7.16017 20.4779 7.37098 20.5201 11.8823 20.5201H15.9157L16.2108 21.012C16.3654 21.279 16.6465 21.5741 16.8292 21.6584C17.1665 21.813 17.1806 21.8833 17.2368 23.6119C17.2789 24.6097 17.2789 25.6216 17.2368 25.8465L17.1806 26.2822H14.5103C12.852 26.2822 11.8823 26.2259 11.9385 26.1416C11.9806 26.0713 12.1212 26.0573 12.2477 26.0995C12.4163 26.1697 12.4444 26.1416 12.3601 25.987C12.2477 25.8184 12.2758 25.8184 12.4725 25.987C12.6833 26.1557 12.7114 26.1557 12.6271 25.9449C12.5287 25.7059 12.9644 25.2562 13.1612 25.3827C13.2314 25.4249 13.2736 25.2562 13.2736 25.0173C13.2736 24.2865 12.9363 24.3427 11.4606 25.3546L10.0693 26.2822H7.69422C5.78289 26.2822 5.2629 26.24 5.00993 26.0573C4.70075 25.8465 4.70075 25.8465 4.70075 21.1103C4.70075 16.6693 4.68669 16.3461 4.41967 15.9245C3.94184 15.1234 3.63265 15.011 1.7916 15.011L0.133247 14.9969V15.4045V15.812L1.69322 15.8823C2.71915 15.9245 3.33752 16.0228 3.49212 16.1493C3.68887 16.318 3.71698 16.838 3.71698 20.9979C3.71698 25.2562 3.74509 25.6919 3.984 26.1416C4.50399 27.1394 4.70075 27.1957 7.62395 27.2378L10.238 27.294L11.5309 28.1935C12.8941 29.1491 13.2033 29.2475 13.3158 28.8259C13.4141 28.4464 13.1893 28.1513 12.5006 27.7438C12.1493 27.547 11.8682 27.3502 11.8682 27.3221C11.8682 27.294 13.892 27.2659 16.3654 27.2659H20.8627V30.0064V32.7469H18.5438C17.2227 32.7469 16.2249 32.6907 16.2249 32.6204C16.2249 32.5502 16.0563 32.2972 15.8595 32.0583C15.4238 31.5383 14.7352 31.3275 14.0325 31.4821C13.4985 31.6086 12.7114 32.241 12.7114 32.5642C12.7114 32.7048 11.7839 32.7469 7.94719 32.7469C2.3397 32.7469 2.73321 32.8734 2.73321 31.0464C2.73321 30.0626 2.69105 29.908 2.35375 29.4864C1.80565 28.84 1.77755 28.8118 0.892155 28.8118C0.21757 28.8118 0.0910853 28.854 0.0208161 29.0789C-0.0775609 29.4583 0.175408 29.6551 0.723508 29.6551C1.04675 29.6551 1.31377 29.7675 1.53863 30.0064C1.84782 30.3016 1.88998 30.4702 1.88998 31.3837C1.88998 32.241 1.94619 32.508 2.21322 32.9015C2.76132 33.7307 2.78942 33.7307 7.96124 33.7307C12.4163 33.7307 12.6974 33.7447 12.7677 33.9837C12.9222 34.4615 13.639 35.0096 14.2152 35.0939C15.0022 35.1923 15.8595 34.7847 16.0984 34.1945L16.2811 33.7307H20.2865H24.3059L25.6831 34.6582C27.1026 35.5999 27.5101 35.7123 27.5804 35.1782C27.6226 34.9393 27.4539 34.7566 26.8215 34.335L26.0204 33.801L30.2225 33.7307C33.3565 33.6745 34.523 33.6183 34.79 33.4777C35.4506 33.1264 35.6192 32.5221 35.6192 30.428C35.6192 28.8962 35.6614 28.5308 35.816 28.5308C36.083 28.5308 36.8559 27.6313 36.9684 27.1957C37.0105 26.9989 37.0105 26.6335 36.9684 26.3805C36.87 25.8886 36.1533 25.0173 35.83 25.0173C35.6473 25.0173 35.6192 23.3308 35.5911 13.0856L35.5489 1.13982L35.1414 0.718201C34.9025 0.479286 34.4949 0.212265 34.2279 0.141994C33.4268 -0.0828667 25.6831 -0.0266533 25.0367 0.212265ZM34.4106 1.23819C34.5792 1.43495 34.6495 1.84251 34.6917 2.78412L34.7479 4.07707L34.2419 4.16139C33.4549 4.31599 30.3631 4.10518 30.2928 3.89437C30.2647 3.81005 30.0258 3.51492 29.7728 3.26195C29.3934 2.8825 29.2247 2.81223 28.6485 2.81223C27.8334 2.81223 27.1026 3.20573 26.9058 3.73978C26.5545 4.65328 26.962 5.91813 27.7209 6.25542L28.0301 6.39596V12.3267C28.0301 18.0888 28.0161 18.2574 27.7491 18.3417C27.6085 18.3839 27.3134 18.6228 27.1166 18.8477C26.442 19.6628 26.7653 21.2087 27.7069 21.6865L28.1004 21.8974L28.0301 23.8508C27.988 25.186 27.9036 25.8886 27.7772 26.0432C27.6085 26.24 27.0183 26.2681 22.8864 26.2822H18.1924V24.0335V21.7849H18.5438C18.7546 21.7849 18.8951 21.7006 18.8951 21.5741C18.8951 21.4617 19.0216 21.293 19.1762 21.1947C19.3308 21.0963 19.4573 20.8995 19.4573 20.773C19.4573 20.5482 19.64 20.5201 21.3686 20.5201C24.5729 20.5201 24.6291 20.4498 24.6853 16.4866L24.7275 13.6759L25.2053 14.3926C25.7815 15.2639 25.9923 15.4466 26.3437 15.3623C26.7372 15.2499 26.5966 14.8704 25.5848 13.3667L24.6713 12.0175L24.6994 6.78947L24.7275 1.57549L25.0648 1.28036C25.388 0.999279 25.5426 0.985226 29.7869 0.985226C33.8625 0.985226 34.1857 0.999279 34.4106 1.23819ZM34.7057 14.4488C34.7057 25.1297 34.7057 25.0173 34.4527 25.0173C34.1436 25.0173 33.5111 25.7762 33.3565 26.3243C33.1738 26.9989 33.5252 27.8702 34.1717 28.3059C34.6495 28.6291 34.6495 28.6432 34.7198 29.9502C34.7479 30.7653 34.7057 31.5383 34.6073 31.974L34.4246 32.6767L30.2085 32.7469C27.8896 32.7891 25.9642 32.8031 25.9361 32.7891C25.908 32.761 26.0064 32.7048 26.1469 32.6485C26.2875 32.6064 26.6107 32.4096 26.8496 32.2269C27.0885 32.0442 27.3415 31.9037 27.4258 31.9037C27.4961 31.9037 27.5664 31.735 27.5523 31.5102C27.5242 30.8637 27.0604 30.948 25.6831 31.8756L24.4464 32.7188L23.1394 32.761L21.8464 32.8172V30.0486V27.28L24.8399 27.2378C28.9858 27.1816 29.0139 27.1535 29.0139 23.8649V21.8552L29.4636 21.6444C30.5036 21.1244 30.7004 19.6347 29.8431 18.7493C29.5901 18.4823 29.295 18.2715 29.1966 18.2715C29.0561 18.2715 29.0139 17.1331 29.0139 12.3688V6.48028L29.4074 6.26947C29.7588 6.08677 30.5177 5.34192 30.335 5.34192C30.2928 5.34192 30.3069 5.27165 30.349 5.20138C30.4052 5.11706 31.3047 5.06084 32.5695 5.06084H34.7057V14.4488Z" fill="#6FCF97"/>
<path d="M14.1168 2.7841C13.5265 2.88248 12.8801 3.47274 12.7255 4.04895C12.2898 5.63703 13.8919 6.97215 15.3676 6.24135C15.9157 5.97433 16.3654 5.24353 16.3654 4.63921C16.3654 3.52896 15.2271 2.58735 14.1168 2.7841Z" fill="#6FCF97"/>
</svg>
