<svg width="41" height="35" viewBox="0 0 41 35" fill="none" xmlns="http://www.w3.org/2000/svg">
<path d="M21.1833 22.1332H0.683333C0.273333 22.1332 0 21.8584 0 21.4462V0.83774C0 0.425571 0.273333 0.150791 0.683333 0.150791H21.1833C21.5933 0.150791 21.8667 0.425571 21.8667 0.83774V21.4462C21.8667 21.8584 21.5933 22.1332 21.1833 22.1332ZM1.36667 20.7593H20.5V1.52469H1.36667V20.7593ZM18.45 19.3854H3.41667C3.14333 19.3854 3.00667 19.248 2.87 19.1106C2.73333 18.9732 2.73333 18.6984 2.73333 18.4236L6.83333 7.43245C6.97 7.15767 7.10667 7.02028 7.38 7.02028C7.65333 7.02028 7.92667 7.15767 8.06333 7.43245L11.07 13.4776L13.8033 11.2794C13.94 11.142 14.2133 11.142 14.35 11.142C14.4867 11.142 14.76 11.2794 14.76 11.4168L18.86 18.2862C18.9967 18.561 18.9967 18.6984 18.86 18.9732C18.7233 19.248 18.7233 19.3854 18.45 19.3854ZM4.37333 18.0115H17.22L14.0767 12.7907L11.2067 14.9889C11.07 15.1263 10.7967 15.1263 10.66 15.1263C10.5233 15.1263 10.25 14.9889 10.25 14.7141L7.51667 9.21852L4.37333 18.0115ZM40.3167 1.52469H26.65C26.24 1.52469 25.9667 1.24991 25.9667 0.83774C25.9667 0.425571 26.24 0.150791 26.65 0.150791H40.3167C40.7267 0.150791 41 0.425571 41 0.83774C41 1.24991 40.7267 1.52469 40.3167 1.52469ZM40.3167 5.64638H26.65C26.24 5.64638 25.9667 5.3716 25.9667 4.95943C25.9667 4.54726 26.24 4.27248 26.65 4.27248H40.3167C40.7267 4.27248 41 4.54726 41 4.95943C41 5.3716 40.7267 5.64638 40.3167 5.64638ZM40.3167 9.76808H26.65C26.24 9.76808 25.9667 9.4933 25.9667 9.08113C25.9667 8.66896 26.24 8.39418 26.65 8.39418H40.3167C40.7267 8.39418 41 8.66896 41 9.08113C41 9.4933 40.7267 9.76808 40.3167 9.76808ZM40.3167 13.8898H26.65C26.24 13.8898 25.9667 13.615 25.9667 13.2028C25.9667 12.7907 26.24 12.5159 26.65 12.5159H40.3167C40.7267 12.5159 41 12.7907 41 13.2028C41 13.615 40.7267 13.8898 40.3167 13.8898ZM40.3167 18.0115H26.65C26.24 18.0115 25.9667 17.7367 25.9667 17.3245C25.9667 16.9123 26.24 16.6376 26.65 16.6376H40.3167C40.7267 16.6376 41 16.9123 41 17.3245C41 17.7367 40.7267 18.0115 40.3167 18.0115ZM40.3167 22.1332H26.65C26.24 22.1332 25.9667 21.8584 25.9667 21.4462C25.9667 21.034 26.24 20.7593 26.65 20.7593H40.3167C40.7267 20.7593 41 21.034 41 21.4462C41 21.8584 40.7267 22.1332 40.3167 22.1332ZM40.3167 26.2549H0.683333C0.273333 26.2549 0 25.9801 0 25.5679C0 25.1557 0.273333 24.881 0.683333 24.881H40.3167C40.7267 24.881 41 25.1557 41 25.5679C41 25.9801 40.7267 26.2549 40.3167 26.2549ZM40.3167 30.3765H0.683333C0.273333 30.3765 0 30.1018 0 29.6896C0 29.2774 0.273333 29.0026 0.683333 29.0026H40.3167C40.7267 29.0026 41 29.2774 41 29.6896C41 30.1018 40.7267 30.3765 40.3167 30.3765ZM40.3167 34.4982H0.683333C0.273333 34.4982 0 34.2235 0 33.8113C0 33.3991 0.273333 33.1243 0.683333 33.1243H40.3167C40.7267 33.1243 41 33.3991 41 33.8113C41 34.2235 40.7267 34.4982 40.3167 34.4982ZM14.35 9.76808C12.4367 9.76808 10.9333 8.25679 10.9333 6.33333C10.9333 4.40987 12.4367 2.89859 14.35 2.89859C16.2633 2.89859 17.7667 4.40987 17.7667 6.33333C17.7667 8.25679 16.2633 9.76808 14.35 9.76808ZM14.35 4.27248C13.2567 4.27248 12.3 5.23421 12.3 6.33333C12.3 7.43245 13.2567 8.39418 14.35 8.39418C15.4433 8.39418 16.4 7.43245 16.4 6.33333C16.4 5.23421 15.4433 4.27248 14.35 4.27248Z" fill="#4694FC"/>
</svg>
