<svg width="41" height="41" viewBox="0 0 41 41" fill="none" xmlns="http://www.w3.org/2000/svg">
<path d="M18.3745 35.1126H1.10501C0.70648 35.1126 0.440796 34.847 0.440796 34.4484V21.1642C0.440796 16.2491 4.82458 11.8653 9.73974 11.8653C14.6549 11.8653 19.0387 16.2491 19.0387 21.1642V34.4484C19.0387 34.847 18.773 35.1126 18.3745 35.1126ZM1.76922 33.7842H17.7103V21.1642C17.7103 16.9133 13.9907 13.1937 9.73974 13.1937C5.48879 13.1937 1.76922 16.9133 1.76922 21.1642V33.7842ZM39.6292 24.4853C39.2307 24.4853 38.965 24.2196 38.965 23.8211V13.1937C38.965 8.94275 35.2454 5.22317 30.9945 5.22317C30.5959 5.22317 30.3303 4.95749 30.3303 4.55896C30.3303 4.16044 30.5959 3.89475 30.9945 3.89475C35.9096 3.89475 40.2934 8.27854 40.2934 13.1937V23.8211C40.2934 24.2196 40.0277 24.4853 39.6292 24.4853ZM9.07553 13.1937C8.80984 13.1937 8.54416 13.0609 8.41132 12.7952C8.27848 12.3966 8.41132 12.131 8.80984 11.9981L17.4446 8.94275C17.8431 8.80991 18.1088 8.94275 18.2416 9.34128C18.3745 9.7398 18.2416 10.0055 17.8431 10.1383L9.34121 13.1937H9.07553ZM18.3745 35.1126C18.1088 35.1126 17.8431 34.9798 17.8431 34.7141C17.7103 34.4484 17.8431 34.0499 18.1088 33.7842L39.3635 23.1569C39.6292 23.024 40.0277 23.1569 40.2934 23.4225C40.5591 23.6882 40.2934 24.0867 40.0277 24.3524L18.773 34.9798C18.6402 35.1126 18.5073 35.1126 18.3745 35.1126ZM15.7176 40.4263C15.3191 40.4263 15.0534 40.1606 15.0534 39.7621V34.4484C15.0534 34.0499 15.3191 33.7842 15.7176 33.7842C16.1162 33.7842 16.3818 34.0499 16.3818 34.4484V39.7621C16.3818 40.1606 16.1162 40.4263 15.7176 40.4263ZM21.0313 40.4263C20.6328 40.4263 20.3671 40.1606 20.3671 39.7621V33.12C20.3671 32.7215 20.6328 32.4558 21.0313 32.4558C21.4298 32.4558 21.6955 32.7215 21.6955 33.12V39.7621C21.6955 40.1606 21.4298 40.4263 21.0313 40.4263ZM25.0166 40.4263C24.618 40.4263 24.3524 40.1606 24.3524 39.7621V31.1274C24.3524 30.7288 24.618 30.4632 25.0166 30.4632C25.4151 30.4632 25.6808 30.7288 25.6808 31.1274V39.7621C25.6808 40.1606 25.4151 40.4263 25.0166 40.4263ZM21.0313 21.8284C20.6328 21.8284 20.3671 21.5627 20.3671 21.1642V2.56633C20.3671 2.30065 20.6328 2.03496 20.8985 1.90212L27.5406 0.5737C27.6734 0.5737 27.9391 0.5737 28.0719 0.706542C28.2048 0.839384 28.3376 0.972226 28.3376 1.23791V6.55159C28.3376 6.81728 28.0719 7.08296 27.8063 7.2158L21.6955 8.41138V21.1642C21.6955 21.5627 21.4298 21.8284 21.0313 21.8284ZM21.6955 3.0977V7.08296L27.0092 6.02022V2.03496L21.6955 3.0977ZM11.7324 31.1274C11.5995 31.1274 11.4667 31.1274 11.3338 30.9945C11.201 30.8617 11.0682 30.7288 11.0682 30.4632V21.1642C11.0682 20.8985 11.201 20.6329 11.4667 20.6329L14.1235 19.3044C14.3892 19.1716 14.7877 19.3044 15.0534 19.5701C15.1863 19.8358 15.0534 20.2343 14.7877 20.5L12.3966 21.5627V29.4004L14.1235 28.6034C14.3892 28.4705 14.7877 28.6034 15.0534 28.8691C15.1863 29.1347 15.0534 29.5333 14.7877 29.799L12.1309 31.1274H11.7324ZM5.09027 31.1274C4.95743 31.1274 4.82458 31.1274 4.69174 30.9945C4.5589 30.8617 4.42606 30.7288 4.42606 30.4632V21.1642C4.42606 20.8985 4.5589 20.6329 4.82458 20.6329L7.48142 19.3044C7.74711 19.1716 8.14563 19.3044 8.41132 19.5701C8.54416 19.8358 8.41132 20.2343 8.14563 20.5L5.75448 21.5627V29.4004L7.48142 28.6034C7.74711 28.4705 8.14563 28.6034 8.41132 28.8691C8.677 29.1347 8.41132 29.5333 8.14563 29.799L5.48879 31.1274H5.09027Z" fill="#E67B1A"/>
</svg>
