<svg width="43" height="40" viewBox="0 0 43 40" fill="none" xmlns="http://www.w3.org/2000/svg">
<path d="M22.2166 36.4492C21.93 36.4492 21.6433 36.3043 21.5 36.0145L18.06 25.4348L7.59665 21.9565C7.45331 21.8116 7.16665 21.5217 7.16665 21.2319C7.16665 20.942 7.30998 20.6522 7.45331 20.5072L41.8533 0.217392C42.1399 0.0724641 42.4266 0.0724641 42.5699 0.217392C42.8566 0.507246 42.9999 0.797101 42.9999 1.08696L37.2666 31.5217C37.2666 31.6666 37.1233 31.9565 36.9799 31.9565C36.8366 32.1014 36.5499 32.1014 36.4066 31.9565L24.2233 27.3188L22.9333 35.8695C22.9333 36.1594 22.6466 36.4492 22.2166 36.4492ZM9.60331 21.0869L18.92 24.2753C19.0633 24.2753 19.35 24.5652 19.35 24.7101L21.93 32.6811L22.9333 26.1594C22.9333 25.8695 23.0766 25.7246 23.22 25.5797C23.3633 25.4348 23.65 25.4348 23.7933 25.5797L35.8333 30.3623L41.1366 2.3913L9.60331 21.0869ZM23.65 27.029C23.5066 27.029 23.3633 27.029 23.22 26.884C22.9333 26.5942 22.79 26.1594 23.0766 25.8695L35.8333 8.47825L19.2066 25.2898C18.92 25.5797 18.49 25.5797 18.2033 25.2898C17.9166 25 17.9166 24.5652 18.2033 24.2753L41.7099 0.362319C41.9966 0.0724642 42.4266 0.0724642 42.7133 0.362319C42.9999 0.652174 42.9999 1.08696 42.8566 1.37681L24.2233 26.7391C24.08 26.884 23.9366 27.029 23.65 27.029ZM22.2166 36.4492C22.0733 36.4492 21.93 36.4492 21.7866 36.3043C21.5 36.0145 21.3566 35.5797 21.6433 35.2898L27.3766 28.0434C27.6633 27.7536 28.0933 27.7536 28.38 27.8985C28.6666 28.1884 28.81 28.6232 28.5233 28.913L22.79 36.1594C22.6466 36.3043 22.36 36.4492 22.2166 36.4492ZM2.00665 34.1304C1.86332 34.1304 1.71999 34.1304 1.57665 33.9855L0.286655 32.6811C-1.13174e-05 32.3913 -1.13174e-05 31.9565 0.286655 31.6666C0.573321 31.3768 1.00332 31.3768 1.28999 31.6666L2.57999 32.971C2.86665 33.2608 2.86665 33.6956 2.57999 33.9855C2.43665 33.9855 2.14999 34.1304 2.00665 34.1304ZM12.6133 39.9275C11.7533 39.7826 10.8933 39.6376 10.1766 39.3478C9.74664 39.2029 9.60331 38.7681 9.74664 38.4782C9.88998 38.1884 10.32 37.8985 10.6066 38.0434C11.3233 38.3333 12.04 38.4782 12.7566 38.4782C13.1866 38.4782 13.4733 38.913 13.33 39.3478C13.33 39.6376 13.0433 39.9275 12.6133 39.9275ZM16.0533 39.9275C15.7666 39.9275 15.3366 39.6376 15.3366 39.3478C15.3366 38.913 15.48 38.6231 15.91 38.4782C16.1966 38.4782 16.34 38.3333 16.6266 38.3333C17.0566 38.1884 17.3433 38.4782 17.4866 38.913C17.63 39.3478 17.3433 39.6376 16.9133 39.7826C16.77 39.7826 16.4833 39.7826 16.0533 39.9275C16.1966 39.9275 16.1966 39.9275 16.0533 39.9275ZM7.30998 38.0434C7.16665 38.0434 7.02331 38.0434 7.02331 37.8985C6.30665 37.4637 5.73332 37.0289 5.01665 36.5942C4.72998 36.3043 4.58665 35.8695 4.87332 35.5797C5.15998 35.2898 5.58998 35.1449 5.87665 35.4347C6.44998 35.8695 7.16665 36.3043 7.73998 36.5942C8.02665 36.7391 8.16998 37.1739 8.02665 37.6087C7.73998 37.8985 7.59665 38.0434 7.30998 38.0434ZM18.7766 39.0579C18.49 39.0579 18.2033 38.913 18.06 38.6231C17.9166 38.1884 18.06 37.8985 18.49 37.6087C19.0633 37.3188 19.4933 37.1739 20.0666 36.884C20.3533 36.7391 20.7833 36.7391 21.07 37.1739C21.2133 37.4637 21.2133 37.8985 20.7833 38.1884L19.0633 39.0579H18.7766Z" fill="#6FA1CF"/>
</svg>
