<svg width="41" height="41" viewBox="0 0 41 41" fill="none" xmlns="http://www.w3.org/2000/svg">
<path opacity="0.8" d="M18.6611 25.8123C18.1163 25.8123 17.7076 25.6761 17.299 25.2675C16.2093 24.1777 15.5282 23.2243 15.2558 22.1346C14.9834 21.4535 14.4385 20.7724 13.6213 20.5C12.5316 20.0914 11.5781 19.5465 10.6246 18.4568L1.36213 9.33057C0.544851 8.37708 0 7.15117 0 5.92525C0 4.69934 0.544851 3.47342 1.36213 2.51993L2.45183 1.43023C3.40532 0.476744 4.63123 0.0681057 5.85715 0.0681057C7.08306 0.0681057 8.30897 0.612956 9.26246 1.43023L18.3887 10.5565C19.4784 11.6462 20.0233 12.5997 20.4319 13.5532C20.7043 14.3704 21.3854 15.0515 22.2027 15.3239C23.2924 15.7326 24.2459 16.2774 25.1993 17.3671C25.608 17.7758 25.7442 18.1844 25.7442 18.7292C25.7442 19.2741 25.608 19.6827 25.1993 20.0914L20.0233 25.2675C19.6146 25.6761 19.206 25.8123 18.6611 25.8123ZM5.85715 1.43023C4.90366 1.43023 4.08638 1.83887 3.40532 2.38372L2.31562 3.47342C1.77076 4.15449 1.36213 4.97176 1.36213 5.92525C1.36213 6.87874 1.77076 7.69602 2.31562 8.37708L11.4419 17.5033C12.3954 18.4568 13.0764 19.0017 14.0299 19.2741C15.2558 19.6827 16.2093 20.6362 16.6179 21.8621C16.8904 22.6794 17.4352 23.4967 18.3887 24.4502C18.6611 24.7226 18.9336 24.7226 19.0698 24.4502L24.2459 19.2741C24.3821 19.1379 24.3821 19.0017 24.3821 18.8655C24.3821 18.7292 24.3821 18.593 24.2459 18.4568C23.2924 17.5033 22.4751 16.9585 21.6578 16.6861C20.4319 16.2774 19.4784 15.3239 19.0698 14.098C18.7973 13.2807 18.2525 12.4635 17.299 11.51L8.30897 2.38372C7.62791 1.83887 6.81063 1.43023 5.85715 1.43023ZM38.412 40.9319C38.2758 40.9319 38.1395 40.9319 38.1395 40.7957L32.2824 37.799C31.4651 37.3904 30.9203 36.5731 30.9203 35.6196V34.3937L20.8405 24.314C20.5681 24.0415 20.5681 23.6329 20.8405 23.3605C21.113 23.088 21.5216 23.088 21.794 23.3605L32.1462 33.7126C32.2824 33.8488 32.2824 33.9851 32.2824 34.2575V35.7558C32.2824 36.1645 32.5548 36.5731 32.8273 36.7093L38.2758 39.4336L39.3655 38.3439L36.6412 32.8954C36.505 32.4867 36.0964 32.3505 35.6877 32.3505H34.1894C34.0532 32.3505 33.7807 32.2143 33.6445 32.2143L23.4286 21.8621C23.1562 21.5897 23.1562 21.1811 23.4286 20.9086C23.701 20.6362 24.1096 20.6362 24.3821 20.9086L34.4618 30.9884H35.6877C36.6412 30.9884 37.4585 31.5332 37.8671 32.3505L40.8638 38.2077C41 38.4801 41 38.7525 40.7276 39.0249L38.9568 40.7957C38.8206 40.7957 38.6844 40.9319 38.412 40.9319ZM24.2459 22.407C24.1096 22.407 23.8372 22.2708 23.701 22.2708L22.8837 21.4535C22.7475 21.3173 22.7475 21.1811 22.7475 20.9086C22.7475 20.7724 22.8837 20.5 22.8837 20.3638L24.2459 19.0017C24.3821 18.8655 24.3821 18.7292 24.3821 18.593C24.3821 18.4568 24.3821 18.3206 24.2459 18.1844C23.2924 17.2309 22.4751 16.6861 21.6578 16.4136C21.113 16.2774 20.4319 15.8688 20.0233 15.4601C19.7508 15.1877 19.7508 14.7791 20.0233 14.5066L22.4751 12.0548C23.4286 11.1013 23.9734 9.73921 23.9734 8.6495C23.8372 6.60631 24.7907 4.56312 26.6977 2.65615C28.3322 1.02159 30.3754 0.0681057 32.4186 0.0681057H32.5548C34.4618 0.0681057 36.2326 0.749169 37.7309 1.97508C37.8671 2.1113 38.0033 2.38372 38.0033 2.51993C38.0033 2.79236 37.8671 2.92857 37.7309 3.06478L32.4186 6.33389C32.5548 8.10465 33.5083 9.60299 35.1429 10.2841L39.9103 7.42359C40.0465 7.28738 40.319 7.28738 40.5914 7.42359C40.7276 7.5598 40.8638 7.69602 40.8638 7.96844C41 10.2841 40.319 12.3272 38.8206 13.9618C37.3223 15.4601 35.1429 16.4136 32.691 16.4136C32.01 16.4136 31.4651 16.2774 30.6479 16.1412L24.7907 22.2708C24.6545 22.407 24.5183 22.407 24.2459 22.407ZM22.2027 15.3239C23.2924 15.7326 24.2459 16.2774 25.1993 17.3671C25.608 17.7758 25.7442 18.1844 25.7442 18.7292C25.7442 18.8655 25.7442 19.1379 25.608 19.2741L29.9668 14.7791C30.103 14.6429 30.3754 14.5066 30.6479 14.6429C31.4651 14.9153 32.01 14.9153 32.691 14.9153C34.7342 14.9153 36.505 14.2342 37.7309 12.8721C38.6844 11.9186 39.2292 10.5565 39.3655 9.05814L35.2791 11.51C35.1429 11.6462 34.8704 11.6462 34.598 11.51L34.1894 11.3738C32.01 10.2841 30.7841 8.10465 30.7841 5.78904C30.7841 5.51661 30.9203 5.3804 31.0565 5.24419L35.8239 2.38372C35.0067 1.83887 33.7807 1.43023 32.5548 1.43023H32.4186C30.6479 1.43023 29.0133 2.24751 27.6512 3.60964C26.0166 5.3804 25.3356 7.01495 25.3356 8.6495C25.4718 10.2841 24.6545 11.9186 23.4286 13.1445L21.5216 15.0515C21.794 15.1877 21.9302 15.3239 22.2027 15.3239ZM8.44519 40.9319C6.67442 40.9319 5.03987 40.3871 3.54153 39.2974C3.40532 39.1611 3.2691 38.8887 3.2691 38.7525C3.2691 38.4801 3.40532 38.3439 3.54153 38.2077L9.39867 34.6661C9.26246 32.8954 8.30897 31.397 6.67442 30.716L1.0897 34.1213C0.953489 34.2575 0.681063 34.2575 0.408638 34.1213C0.136213 33.9851 0 33.8488 0 33.5764V32.4867C0 27.9917 3.40532 24.5864 8.17276 24.5864C9.6711 24.5864 10.897 24.1777 11.8505 23.2243L14.711 20.2276C14.8472 20.0914 14.9834 19.9552 15.2558 19.9552C15.392 19.9552 15.6645 20.0914 15.8007 20.0914C16.2093 20.5 16.6179 21.0449 16.7542 21.7259C17.0266 22.5432 17.5714 23.3605 18.5249 24.314C18.7973 24.5864 19.0698 24.5864 19.206 24.314L20.5681 22.9518C20.7043 22.8156 20.8405 22.8156 21.113 22.8156C21.2492 22.8156 21.5216 22.9518 21.6578 22.9518L22.4751 23.7691C22.7475 24.0415 22.7475 24.4502 22.4751 24.7226L18.5249 28.6728C17.5714 29.6263 17.0266 30.9884 17.0266 32.2143C17.1628 34.2575 16.2093 36.3007 14.4385 38.2077C12.5316 39.9784 10.4884 40.9319 8.44519 40.9319ZM5.31229 38.7525C6.26578 39.2974 7.35548 39.5698 8.44519 39.5698C10.216 39.5698 11.8505 38.7525 13.2126 37.2542C14.8472 35.4834 15.5282 33.9851 15.5282 32.2143C15.392 30.5797 16.2093 28.9452 17.4352 27.7193L19.4784 25.6761C18.7973 25.9485 17.9801 25.8123 17.4352 25.2675C16.3455 24.1777 15.6645 23.2243 15.392 22.1346C15.392 21.9983 15.2558 21.7259 15.1196 21.5897L12.804 24.0415C11.7143 25.2675 10.0797 25.9485 8.17276 25.9485C4.35881 25.9485 1.36213 28.6728 1.36213 32.3505L6.402 29.3538C6.53821 29.2176 6.81063 29.2176 7.08306 29.3538L7.4917 29.49C9.53489 30.5797 10.7608 32.7591 10.7608 35.0748C10.7608 35.3472 10.6246 35.4834 10.4884 35.6196L5.31229 38.7525Z" fill="#CF6F80"/>
</svg>
