<svg width="41" height="39" viewBox="0 0 41 39" fill="none" xmlns="http://www.w3.org/2000/svg">
<path d="M15.1188 20.2312C14.7344 19.7187 13.8375 19.5906 13.325 19.975L8.2 23.8188C7.81562 24.075 7.6875 24.4594 7.6875 24.8438C7.6875 25.2281 7.81562 25.6125 8.2 25.8687L13.325 29.7125C13.5813 29.8406 13.8375 29.9688 14.0938 29.9688C14.4781 29.9688 14.8625 29.8406 15.1188 29.4563C15.5031 28.9438 15.375 28.0469 14.8625 27.6625L11.1469 24.8438L14.8625 22.025C15.375 21.6406 15.5031 20.7437 15.1188 20.2312ZM39.7188 0.5H1.28125C0.5125 0.5 0 1.0125 0 1.78125V37.6562C0 38.425 0.5125 38.9375 1.28125 38.9375H39.7188C40.4875 38.9375 41 38.425 41 37.6562V1.78125C41 1.0125 40.4875 0.5 39.7188 0.5ZM38.4375 3.0625V8.1875H2.5625V3.0625H38.4375ZM2.5625 36.375V10.75H38.4375V36.375H2.5625ZM35.875 6.90625C36.6437 6.90625 37.1562 6.39375 37.1562 5.625C37.1562 4.85625 36.6437 4.34375 35.875 4.34375C35.1063 4.34375 34.5938 4.85625 34.5938 5.625C34.5938 6.39375 35.1063 6.90625 35.875 6.90625ZM35.875 4.98438V5.625V4.98438ZM32.0312 6.90625C32.8 6.90625 33.3125 6.39375 33.3125 5.625C33.3125 4.85625 32.8 4.34375 32.0312 4.34375C31.2625 4.34375 30.75 4.85625 30.75 5.625C30.75 6.39375 31.2625 6.90625 32.0312 6.90625ZM32.0312 4.98438V5.625V4.98438ZM28.1875 6.90625C28.9562 6.90625 29.4688 6.39375 29.4688 5.625C29.4688 4.85625 28.9562 4.34375 28.1875 4.34375C27.4188 4.34375 26.9062 4.85625 26.9062 5.625C26.9062 6.39375 27.4188 6.90625 28.1875 6.90625ZM28.1875 4.98438V5.625V4.98438ZM27.675 19.975C27.1625 19.5906 26.2656 19.7187 25.8813 20.2312C25.4969 20.7437 25.625 21.6406 26.1375 22.025L29.8531 24.8438L26.1375 27.6625C25.625 28.0469 25.4969 28.9438 25.8813 29.4563C26.1375 29.8406 26.5219 29.9688 26.9062 29.9688C27.1625 29.9688 27.4188 29.8406 27.675 29.7125L32.8 25.8687C33.1844 25.6125 33.3125 25.2281 33.3125 24.8438C33.3125 24.4594 33.1844 24.075 32.8 23.8188L27.675 19.975ZM24.8562 16.0031C24.2156 15.7469 23.4469 16.0031 23.1906 16.5156L15.5031 31.8906C15.2469 32.5312 15.5031 33.3 16.0156 33.5562C16.2719 33.8125 16.4 33.8125 16.6562 33.8125C17.1688 33.8125 17.5531 33.5563 17.8094 33.0438L25.4969 17.6687C25.7531 17.1562 25.4969 16.3875 24.8562 16.0031Z" fill="#4AD3FF"/>
</svg>
