<svg width="40" height="40" viewBox="0 0 40 40" fill="none" xmlns="http://www.w3.org/2000/svg">
<path fill-rule="evenodd" clip-rule="evenodd" d="M37.4917 39.802H34.1914C32.7392 39.802 31.6831 39.0099 31.0231 37.5577L26.6666 29.2409H13.0693L8.84483 37.9538C8.18476 39.1419 6.99664 39.802 5.67651 39.802H2.5082C1.18806 39.802 0.263971 38.7459 0.131958 37.5577C0.131958 36.3696 0.263971 35.1815 0.660011 34.1254L1.32008 31.8812C1.98014 29.769 1.71612 26.2046 0.792024 23.9604C0.263971 22.5082 -5.52088e-05 20.9241 0.263971 19.3399C0.792024 15.9076 3.5643 13.1353 7.26067 12.3432C9.90094 11.6832 12.2772 12.0792 14.2574 13.3993H16.3696L18.7458 11.0231C18.8778 10.8911 19.1419 10.7591 19.2739 10.7591H19.2843H20.594L20.6049 10.7593C20.6706 10.7626 20.7643 10.7938 20.858 10.8251C20.957 10.8581 21.0561 10.8911 21.1221 10.8911L23.6303 13.3993H25.7425C27.5907 12.0792 29.9669 11.6832 32.7392 12.3432C36.3036 13.1353 39.2079 16.1716 39.7359 19.604C40 21.1881 39.8679 22.7723 39.2079 24.2244C38.2838 26.4686 38.1518 29.637 38.6798 31.7492L39.3399 33.9934C39.6039 35.0495 39.8679 36.2376 39.8679 37.4257C39.7359 38.7459 38.6798 39.802 37.4917 39.802ZM16.8471 14.7195C16.6692 14.8075 16.466 14.8075 16.2881 14.7195H13.9933C13.8613 14.7195 13.7293 14.7195 13.5973 14.5875C12.0131 13.3993 9.90094 13.0033 7.39268 13.5313C4.22437 14.1914 1.98014 16.5676 1.45209 19.4719C1.18806 20.7921 1.45209 22.2442 1.84813 23.4323C2.90424 25.9406 3.03625 29.769 2.37618 32.1452L1.71612 34.3894C1.5841 35.4455 1.45209 36.5016 1.45209 37.5577C1.45209 38.0858 1.84813 38.4818 2.5082 38.4818H5.80853C6.60061 38.4818 7.39268 38.0858 7.78872 37.2937L12.2772 28.1848C12.1452 28.0528 12.4092 27.9208 12.6732 27.9208H27.0627C27.3267 27.9208 27.5907 28.0528 27.5907 28.3168L32.0792 37.0297C32.4752 37.9538 33.1353 38.4818 34.0594 38.4818H37.3597C37.8877 38.4818 38.2838 38.0858 38.4158 37.5577C38.4158 36.5016 38.2838 35.4455 38.0198 34.5214L37.3597 32.2772C36.6996 29.901 36.9636 26.4686 37.8877 23.8284C38.4158 22.6403 38.5478 21.1881 38.2838 19.868C37.8877 16.8317 35.3795 14.3234 32.3432 13.6634C29.9669 13.1353 27.8547 13.5313 26.2706 14.7195H23.2343H16.8471ZM18.2178 13.3993H21.5806L20.33 12.0792H19.9339H19.5379L18.2178 13.3993ZM10.0329 26.6007H7.39268C6.99665 26.6007 6.73262 26.3366 6.73262 25.9406V22.6403H3.43229C3.03625 22.6403 2.77222 22.3762 2.77222 21.9802V19.3399C2.77222 18.9439 3.03625 18.6799 3.43229 18.6799H6.73262V15.3795C6.73262 14.9835 6.99665 14.7195 7.39268 14.7195H10.0329C10.429 14.7195 10.693 14.9835 10.693 15.3795V18.6799H13.9933C14.3894 18.6799 14.6534 18.9439 14.6534 19.3399V21.9802C14.6534 22.3762 14.3894 22.6403 13.9933 22.6403H10.693V25.9406C10.693 26.3366 10.429 26.6007 10.0329 26.6007ZM8.05275 25.2805H9.37288V21.9802C9.37288 21.5842 9.63691 21.3201 10.0329 21.3201H13.3333V20H10.0329C9.63691 20 9.37288 19.736 9.37288 19.3399V16.0396H8.05275V19.3399C8.05275 19.736 7.78872 20 7.39268 20H4.09235V21.3201H7.39268C7.78872 21.3201 8.05275 21.5842 8.05275 21.9802V25.2805ZM23.2343 26.6007H21.9141C21.5181 26.6007 21.2541 26.3366 21.2541 25.9406C21.2541 25.5445 21.5181 25.2805 21.9141 25.2805H23.2343C23.6303 25.2805 23.8943 25.5445 23.8943 25.9406C23.8943 26.3366 23.6303 26.6007 23.2343 26.6007ZM31.1551 20C30.8426 20 30.5417 19.9191 30.2728 19.7778C30.4141 20.0467 30.495 20.3476 30.495 20.6601C30.495 20.9725 30.4141 21.2735 30.2728 21.5423C30.5417 21.401 30.8426 21.3201 31.1551 21.3201C31.4675 21.3201 31.7685 21.401 32.0373 21.5423C31.896 21.2735 31.8151 20.9725 31.8151 20.6601C31.8151 20.3476 31.896 20.0467 32.0373 19.7778C31.7685 19.9191 31.4675 20 31.1551 20ZM29.1749 18.0198C29.1749 18.3323 29.2558 18.6332 29.397 18.902C29.1282 18.7608 28.8273 18.6799 28.5148 18.6799C27.4587 18.6799 26.5346 19.604 26.5346 20.6601C26.5346 21.7162 27.4587 22.6403 28.5148 22.6403C28.8273 22.6403 29.1282 22.5594 29.397 22.4181C29.2558 22.6869 29.1749 22.9878 29.1749 23.3003C29.1749 24.3564 30.099 25.2805 31.1551 25.2805C32.2112 25.2805 33.1353 24.3564 33.1353 23.3003C33.1353 22.9878 33.0544 22.6869 32.9131 22.4181C33.1819 22.5594 33.4828 22.6403 33.7953 22.6403C34.8514 22.6403 35.7755 21.7162 35.7755 20.6601C35.7755 19.604 34.8514 18.6799 33.7953 18.6799C33.4828 18.6799 33.1819 18.7608 32.9131 18.902C33.0544 18.6332 33.1353 18.3323 33.1353 18.0198C33.1353 16.9637 32.2112 16.0396 31.1551 16.0396C30.099 16.0396 29.1749 16.9637 29.1749 18.0198ZM31.1551 17.3597C30.759 17.3597 30.495 17.6238 30.495 18.0198C30.495 18.4158 30.759 18.6799 31.1551 18.6799C31.5511 18.6799 31.8151 18.4158 31.8151 18.0198C31.8151 17.6238 31.5511 17.3597 31.1551 17.3597ZM31.1551 22.6403C30.759 22.6403 30.495 22.9043 30.495 23.3003C30.495 23.6964 30.759 23.9604 31.1551 23.9604C31.5511 23.9604 31.8151 23.6964 31.8151 23.3003C31.8151 22.9043 31.5511 22.6403 31.1551 22.6403ZM28.5148 20C28.1188 20 27.8547 20.264 27.8547 20.6601C27.8547 21.0561 28.1188 21.3201 28.5148 21.3201C28.9108 21.3201 29.1749 21.0561 29.1749 20.6601C29.1749 20.264 28.9108 20 28.5148 20ZM33.7953 20C33.3993 20 33.1353 20.264 33.1353 20.6601C33.1353 21.0561 33.3993 21.3201 33.7953 21.3201C34.1914 21.3201 34.4554 21.0561 34.4554 20.6601C34.4554 20.264 34.1914 20 33.7953 20Z" fill="#F2C94C"/>
<path d="M16.6336 26.6007H15.3135C14.9174 26.6007 14.6534 26.3366 14.6534 25.9406C14.6534 25.5445 14.9174 25.2805 15.3135 25.2805H16.6336C17.0296 25.2805 17.2937 25.5445 17.2937 25.9406C17.2937 26.3366 17.0296 26.6007 16.6336 26.6007Z" fill="#F2C94C"/>
<path d="M30.495 0.858079C30.495 0.46204 30.231 0.198013 29.8349 0.198013C23.1812 0.198013 19.5041 3.91872 19.2843 10.7591H20.594L20.6049 10.7593C20.8121 4.59855 23.9681 1.51815 29.8349 1.51815C30.231 1.51815 30.495 1.25412 30.495 0.858079Z" fill="#F2C94C"/>
</svg>
