<svg width="30" height="30" viewBox="0 0 30 30" fill="none" xmlns="http://www.w3.org/2000/svg">
<path d="M6 12.5C6 12.8 6.2 13 6.5 13C6.8 13 7 12.8 7 12.5C7 10.1 7.3 8.8 8.1 8.1C8.9 7.4 10.1 7 12.5 7C12.8 7 13 6.8 13 6.5C13 6.2 12.8 6 12.5 6C10.1 6 8.8 5.7 8.1 4.9C7.4 4.1 7 2.9 7 0.5C7 0.2 6.8 0 6.5 0C6.2 0 6 0.2 6 0.5C6 2.9 5.7 4.2 4.9 4.9C4.1 5.6 2.9 6 0.5 6C0.2 6 0 6.2 0 6.5C0 6.8 0.2 7 0.5 7C2.9 7 4.2 7.3 4.9 8.1C5.6 8.9 6 10.1 6 12.5ZM12 3.5C12.9 3.5 13.4 3.6 13.6 3.9C13.9 4.1 14 4.6 14 5.5C14 5.8 14.2 6 14.5 6C14.8 6 15 5.8 15 5.5C15 4.6 15.1 4.1 15.4 3.9C15.7 3.6 16.1 3.5 17 3.5C17.3 3.5 17.5 3.3 17.5 3C17.5 2.7 17.3 2.5 17 2.5C16.1 2.5 15.6 2.4 15.4 2.1C15.1 1.9 15 1.4 15 0.5C15 0.2 14.8 0 14.5 0C14.2 0 14 0.2 14 0.5C14 1.4 13.9 1.9 13.6 2.1C13.3 2.4 12.9 2.5 12 2.5C11.7 2.5 11.5 2.7 11.5 3C11.5 3.3 11.7 3.5 12 3.5ZM12.7 14.3C12.2 13.8 12 13 12 11.5C12 11.2 11.8 11 11.5 11C11.2 11 11 11.2 11 11.5C11 13.1 10.8 13.9 10.3 14.3C9.9 14.8 9.1 15 7.5 15C7.2 15 7 15.2 7 15.5C7 15.8 7.2 16 7.5 16C9.1 16 9.9 16.2 10.3 16.7C10.8 17.2 11 18 11 19.5C11 19.8 11.2 20 11.5 20C11.8 20 12 19.8 12 19.5C12 17.9 12.2 17.1 12.7 16.7C13.2 16.2 14 16 15.5 16C15.8 16 16 15.8 16 15.5C16 15.2 15.8 15 15.5 15C13.9 15 13.1 14.8 12.7 14.3ZM21.6 3.2C21.4 3.1 21.2 3.2 21 3.3C20.9 3.4 20.8 3.7 20.9 3.9C21.6 5.5 22 7.2 22 9C22 16.2 16.2 22 9 22C7.2 22 5.5 21.6 3.8 20.9C3.6 20.8 3.4 20.9 3.2 21C3 21.1 3 21.4 3.1 21.6C5.4 26.7 10.4 30 16 30C23.7 30 30 23.7 30 16C30 10.4 26.7 5.4 21.6 3.2Z" fill="black"/>
</svg>
